<svg xmlns="http://www.w3.org/2000/svg" version="1.1" xmlns:xlink="http://www.w3.org/1999/xlink" xmlns:svgjs="http://svgjs.dev/svgjs" width="1440" height="560" preserveAspectRatio="none" viewBox="0 0 1440 560"><g mask="url(&quot;#SvgjsMask1039&quot;)" fill="none"><rect width="1440" height="560" x="0" y="0" fill="rgba(4, 0, 26, 1)"></rect><path d="M1053.49-18.33C909.83 31.18 966 452.88 671.83 454.73 377.65 456.58 105.87 254.82-91.5 253.13" stroke="rgba(72, 36, 255, 0.3)" stroke-width="2"></path><path d="M1085.13-44.08C913.4-21.08 812.66 375.44 533.83 375.92 255 376.4 133.96 129.8-17.47 123.92" stroke="rgba(72, 36, 255, 0.3)" stroke-width="2"></path><path d="M1226.26-97.29C1059.89-42.2 1031.75 429.12 779.84 443.23 527.92 457.34 556.62 373.23 333.41 373.23 110.2 373.23-0.04 443.02-113.01 443.23" stroke="rgba(72, 36, 255, 0.3)" stroke-width="2"></path><path d="M1213.57-39.86C1061.82-2.73 1014.52 399.15 776.8 407.08 539.09 415.01 558.42 337.08 340.04 337.08 121.65 337.08 13.85 406.86-96.73 407.08" stroke="rgba(72, 36, 255, 0.3)" stroke-width="2"></path><path d="M821.05-59.55C658.22-42.15 581.64 298.13 281.64 312.07-18.36 326.01-117.34 467.29-257.77 468.87" stroke="rgba(72, 36, 255, 0.3)" stroke-width="2"></path></g><defs><mask id="SvgjsMask1039"><rect width="1440" height="560" fill="#ffffff"></rect></mask></defs></svg>