<svg xmlns="http://www.w3.org/2000/svg" version="1.1" xmlns:xlink="http://www.w3.org/1999/xlink" xmlns:svgjs="http://svgjs.dev/svgjs" width="2560" height="1440" preserveAspectRatio="none" viewBox="0 0 2560 1440"><g mask="url(&quot;#SvgjsMask1024&quot;)" fill="none"><path d="M1184.46-89.35C909.41 51.57 868.75 954.3 527.47 957.82 186.2 961.34 99.38 337.73-129.51 281.02" stroke="rgba(72, 36, 255, 0.3)" stroke-width="2"></path><path d="M1956.98-73.34C1608.21-35.5 1462.98 683.5 803.83 726.27 144.67 769.04-36.29 1205.87-349.33 1215.87" stroke="rgba(72, 36, 255, 0.3)" stroke-width="2"></path><path d="M2083.79-242.42C1793.97-125.94 1766.81 736.95 1343.94 764.36 921.07 791.77 974.01 584.36 604.09 584.36 234.16 584.36 54.59 763.07-135.76 764.36" stroke="rgba(72, 36, 255, 0.3)" stroke-width="2"></path><path d="M1176.7-279.98C873.48-142.39 839 805.41 427.61 821.31 16.21 837.21-107.53 417.5-321.49 403.71" stroke="rgba(72, 36, 255, 0.3)" stroke-width="2"></path><path d="M2017.08-117.85C1735.83-113.46 1543.18 203.42 947.59 231.6 352.01 259.78 196.94 906.37-121.89 937.2" stroke="rgba(72, 36, 255, 0.3)" stroke-width="2"></path></g><defs><mask id="SvgjsMask1024"><rect width="2560" height="1440" fill="#ffffff"></rect></mask></defs></svg>