<svg xmlns="http://www.w3.org/2000/svg" version="1.1" xmlns:xlink="http://www.w3.org/1999/xlink" xmlns:svgjs="http://svgjs.dev/svgjs" width="2560" height="1440" preserveAspectRatio="none" viewBox="0 0 2560 1440"><g mask="url(&quot;#SvgjsMask1047&quot;)" fill="none"><rect width="2560" height="1440" x="0" y="0" fill="rgba(4, 0, 26, 1)"></rect><path d="M1550.47-248.19C1263.42-101.74 1273.99 802.65 864.04 842.83 454.1 883.01 520.83 662.83 177.62 662.83-165.6 662.83-331.41 841.34-508.81 842.83" stroke="rgba(72, 36, 255, 0.3)" stroke-width="2"></path><path d="M2301.08-229.48C1902.31-166.94 1691.56 790.76 1052.32 793.97 413.08 797.18 137.5 326.71-196.44 318.77" stroke="rgba(72, 36, 255, 0.3)" stroke-width="2"></path><path d="M2249.17-184.9C1918.92-178.19 1680.4 240.52 1005.72 261.84 331.03 283.16 107.59 850.88-237.74 866.64" stroke="rgba(72, 36, 255, 0.3)" stroke-width="2"></path><path d="M1438.65-269.35C1226.59-176.07 1392.59 437.18 910.3 491.94 428.01 546.7 132.65 847.04-146.39 851.94" stroke="rgba(72, 36, 255, 0.3)" stroke-width="2"></path><path d="M1348.6-49.03C1150.67-2.89 1280.14 482.07 773.06 525.14 265.99 568.21-64.05 1018.26-378.01 1029.14" stroke="rgba(72, 36, 255, 0.3)" stroke-width="2"></path></g><defs><mask id="SvgjsMask1047"><rect width="2560" height="1440" fill="#ffffff"></rect></mask></defs></svg>